														<svg xmlns="http://www.w3.org/2000/svg" xmlns:xlink="http://www.w3.org/1999/xlink"
															viewBox="0 0 1000 1000" width="1000" height="1000"
															preserveAspectRatio="xMidYMid meet"
															style="width: 100%; height: 100%; transform: translate3d(0px, 0px, 0px); content-visibility: visible;">
															<defs>
																<clipPath id="__lottie_element_28">
																	<rect width="1000" height="1000" x="0" y="0"></rect>
																</clipPath>
																<g id="__lottie_element_30">
																	<g style="display: none;">
																		<g>
																			<path></path>
																		</g>
																	</g>
																</g>
																<filter id="__lottie_element_36" filterUnits="objectBoundingBox" x="0%"
																	y="0%" width="100%" height="100%">
																	<feComponentTransfer in="SourceGraphic">
																		<feFuncA type="table" tableValues="1.0 0.0"></feFuncA>
																	</feComponentTransfer>
																</filter>
																<mask id="__lottie_element_30_2" mask-type="alpha">
																	<g filter="url(#__lottie_element_36)">
																		<rect width="1000" height="1000" x="0" y="0" fill="#ffffff"
																			opacity="0">
																		</rect>
																		<use xlink:href="#__lottie_element_30"></use>
																	</g>
																</mask>
															</defs>
															<g clip-path="url(#__lottie_element_28)">
																<g transform="matrix(0.9100000262260437,0,0,0.9190999865531921,480,540)"
																	opacity="1" style="display: block;">
																	<g opacity="1"
																		transform="matrix(-1.113864541053772,-0.11707188189029694,0.11707188189029694,-1.113864541053772,2,-75)">
																		<path fill="rgb(61,128,240)" fill-opacity="0.15"
																			d=" M-70.01255798339844,-401.86431884765625 C169.99371337890625,-444.6972351074219 442.586669921875,-274.12939453125 396.586669921875,8.870599746704102 C361.763671875,223.10659790039062 172.55076599121094,371.9076232910156 -28,388.413330078125 C-227.5035400390625,404.7160949707031 -365.1322937011719,224.6052703857422 -382.8580322265625,12.296480178833008 C-399.66583251953125,-272.1670837402344 -267.71356201171875,-366.3424072265625 -70.01255798339844,-401.86431884765625z">
																		</path>
																	</g>
																	<g opacity="1" transform="matrix(1,0,0,1,2,-19)">
																		<path fill="rgb(61,128,240)" fill-opacity="0.2"
																			d=" M-70.01255798339844,-401.86431884765625 C169.99371337890625,-444.6972351074219 442.586669921875,-274.12939453125 396.586669921875,8.870599746704102 C361.763671875,223.10659790039062 172.55076599121094,371.9076232910156 -28,388.413330078125 C-227.5035400390625,404.7160949707031 -365.1322937011719,224.6052703857422 -382.8580322265625,12.296480178833008 C-399.66583251953125,-272.1670837402344 -267.71356201171875,-366.3424072265625 -70.01255798339844,-401.86431884765625z">
																		</path>
																	</g>
																</g>
																<g transform="matrix(0.5600000023841858,0,0,0.5600000023841858,-522.8927612304688,-92.48309326171875)"
																	opacity="0.99" style="display: block;">
																	<g opacity="1"
																		transform="matrix(5.671279430389404,1.766406774520874,-1.766406774520874,5.671279430389404,1785.1390380859375,947.1640014648438)">
																		<path fill="rgb(0,0,0)" fill-opacity="0.2"
																			d=" M78.73500061035156,-34.70800018310547 C78.73500061035156,-34.70800018310547 103.17500305175781,43.82400131225586 103.17500305175781,43.82400131225586 C103.53500366210938,44.98099899291992 103.67500305175781,46.15999984741211 103.625,47.301998138427734 C103.44499969482422,51.4640007019043 100.68499755859375,55.25699996948242 96.48500061035156,56.564998626708984 C96.48500061035156,56.564998626708984 -39.904998779296875,99.01399993896484 -39.904998779296875,99.01399993896484 C-44.125,100.3290023803711 -48.564998626708984,98.73899841308594 -51.064998626708984,95.38700103759766 C-51.744998931884766,94.48400115966797 -52.275001525878906,93.4540023803711 -52.6349983215332,92.31800079345703 C-52.6349983215332,92.31800079345703 -77.06500244140625,13.819000244140625 -77.06500244140625,13.819000244140625 C-77.77200317382812,11.545999526977539 -77.41999816894531,9.932999610900879 -76.63200378417969,7.874000072479248 C-75.6989974975586,5.434999942779541 -21.424999237060547,-10.03600025177002 -6.934999942779541,-15.232000350952148 C-4.73799991607666,-16.020000457763672 -2.174999952316284,-16.81999969482422 0.09000000357627869,-17.42300033569336 C15.008999824523926,-21.39699935913086 72.32599639892578,-41.59400177001953 74.43499755859375,-40.27299880981445 C76.41300201416016,-39.034000396728516 77.97699737548828,-37.111000061035156 78.73500061035156,-34.70800018310547z M78.73500061035156,-34.70800018310547 C78.73500061035156,-34.70800018310547 103.17500305175781,43.82400131225586 103.17500305175781,43.82400131225586 C103.53500366210938,44.98099899291992 103.67500305175781,46.15999984741211 103.625,47.301998138427734 C103.44499969482422,51.4640007019043 100.68499755859375,55.25699996948242 96.48500061035156,56.564998626708984 C96.48500061035156,56.564998626708984 -39.904998779296875,99.01399993896484 -39.904998779296875,99.01399993896484 C-44.125,100.3290023803711 -48.564998626708984,98.73899841308594 -51.064998626708984,95.38700103759766 C-51.744998931884766,94.48400115966797 -52.275001525878906,93.4540023803711 -52.6349983215332,92.31800079345703 C-52.6349983215332,92.31800079345703 -77.06500244140625,13.819000244140625 -77.06500244140625,13.819000244140625 C-77.77200317382812,11.545999526977539 -77.41999816894531,9.932999610900879 -76.63200378417969,7.874000072479248 C-75.6989974975586,5.434999942779541 -21.424999237060547,-10.03600025177002 -6.934999942779541,-15.232000350952148 C-4.73799991607666,-16.020000457763672 -2.174999952316284,-16.81999969482422 0.09000000357627869,-17.42300033569336 C15.008999824523926,-21.39699935913086 72.32599639892578,-41.59400177001953 74.43499755859375,-40.27299880981445 C76.41300201416016,-39.034000396728516 77.97699737548828,-37.111000061035156 78.73500061035156,-34.70800018310547z">
																		</path>
																	</g>
																	<g opacity="1"
																		transform="matrix(5.671279430389404,1.766406774520874,-1.766406774520874,5.671279430389404,1801.1390380859375,934.1640014648438)">
																		<path fill="rgb(44,115,227)" fill-opacity="1"
																			d=" M78.73500061035156,-34.70800018310547 C78.73500061035156,-34.70800018310547 103.17500305175781,43.82400131225586 103.17500305175781,43.82400131225586 C103.53500366210938,44.98099899291992 103.67500305175781,46.15999984741211 103.625,47.301998138427734 C103.44499969482422,51.4640007019043 100.68499755859375,55.25699996948242 96.48500061035156,56.564998626708984 C96.48500061035156,56.564998626708984 -39.904998779296875,99.01399993896484 -39.904998779296875,99.01399993896484 C-44.125,100.3290023803711 -48.564998626708984,98.73899841308594 -51.064998626708984,95.38700103759766 C-51.744998931884766,94.48400115966797 -52.275001525878906,93.4540023803711 -52.6349983215332,92.31800079345703 C-52.6349983215332,92.31800079345703 -77.06500244140625,13.819000244140625 -77.06500244140625,13.819000244140625 C-77.77200317382812,11.545999526977539 -77.41999816894531,9.932999610900879 -76.63200378417969,7.874000072479248 C-75.6989974975586,5.434999942779541 -32.50899887084961,-52.69499969482422 -21.15399932861328,-67.95800018310547 C-19.433000564575195,-70.27200317382812 -16.871999740600586,-71.08200073242188 -14.137999534606934,-70.18000030517578 C3.869999885559082,-64.23500061035156 72.32599639892578,-41.59400177001953 74.43499755859375,-40.27299880981445 C76.41300201416016,-39.034000396728516 77.97699737548828,-37.111000061035156 78.73500061035156,-34.70800018310547z M78.73500061035156,-34.70800018310547 C78.73500061035156,-34.70800018310547 103.17500305175781,43.82400131225586 103.17500305175781,43.82400131225586 C103.53500366210938,44.98099899291992 103.67500305175781,46.15999984741211 103.625,47.301998138427734 C103.44499969482422,51.4640007019043 100.68499755859375,55.25699996948242 96.48500061035156,56.564998626708984 C96.48500061035156,56.564998626708984 -39.904998779296875,99.01399993896484 -39.904998779296875,99.01399993896484 C-44.125,100.3290023803711 -48.564998626708984,98.73899841308594 -51.064998626708984,95.38700103759766 C-51.744998931884766,94.48400115966797 -52.275001525878906,93.4540023803711 -52.6349983215332,92.31800079345703 C-52.6349983215332,92.31800079345703 -77.06500244140625,13.819000244140625 -77.06500244140625,13.819000244140625 C-77.77200317382812,11.545999526977539 -77.41999816894531,9.932999610900879 -76.63200378417969,7.874000072479248 C-75.6989974975586,5.434999942779541 -32.50899887084961,-52.69499969482422 -21.15399932861328,-67.95800018310547 C-19.433000564575195,-70.27200317382812 -16.871999740600586,-71.08200073242188 -14.137999534606934,-70.18000030517578 C3.869999885559082,-64.23500061035156 72.32599639892578,-41.59400177001953 74.43499755859375,-40.27299880981445 C76.41300201416016,-39.034000396728516 77.97699737548828,-37.111000061035156 78.73500061035156,-34.70800018310547z">
																		</path>
																	</g>
																	<g opacity="1"
																		transform="matrix(5.671279430389404,1.766406774520874,-1.766406774520874,5.671279430389404,1801.1390380859375,792.859375)">
																		<g opacity="1" transform="matrix(1,0,0,1,-1792,-1153)">
																			<path fill="rgb(236,242,251)" fill-opacity="1"
																				d=" M1861.2080078125,1111.7490234375 C1861.2080078125,1111.7490234375 1886.1209716796875,1191.5579833984375 1886.1209716796875,1191.5579833984375 C1887.27294921875,1195.248046875 1885.2139892578125,1199.1729736328125 1881.5240478515625,1200.324951171875 C1881.5240478515625,1200.324951171875 1753.446044921875,1240.4090576171875 1753.446044921875,1240.4090576171875 C1749.7559814453125,1241.56103515625 1745.8299560546875,1239.5030517578125 1744.677978515625,1235.81298828125 C1744.677978515625,1235.81298828125 1719.7650146484375,1156.0050048828125 1719.7650146484375,1156.0050048828125 C1718.613037109375,1152.31494140625 1720.6719970703125,1148.3890380859375 1724.362060546875,1147.237060546875 C1724.362060546875,1147.237060546875 1852.4410400390625,1107.1529541015625 1852.4410400390625,1107.1529541015625 C1856.1309814453125,1106.0009765625 1860.0560302734375,1108.0589599609375 1861.2080078125,1111.7490234375z M1861.2080078125,1111.7490234375 C1861.2080078125,1111.7490234375 1886.1209716796875,1191.5579833984375 1886.1209716796875,1191.5579833984375 C1887.27294921875,1195.248046875 1885.2139892578125,1199.1729736328125 1881.5240478515625,1200.324951171875 C1881.5240478515625,1200.324951171875 1753.446044921875,1240.4090576171875 1753.446044921875,1240.4090576171875 C1749.7559814453125,1241.56103515625 1745.8299560546875,1239.5030517578125 1744.677978515625,1235.81298828125 C1744.677978515625,1235.81298828125 1719.7650146484375,1156.0050048828125 1719.7650146484375,1156.0050048828125 C1718.613037109375,1152.31494140625 1720.6719970703125,1148.3890380859375 1724.362060546875,1147.237060546875 C1724.362060546875,1147.237060546875 1852.4410400390625,1107.1529541015625 1852.4410400390625,1107.1529541015625 C1856.1309814453125,1106.0009765625 1860.0560302734375,1108.0589599609375 1861.2080078125,1111.7490234375z">
																			</path>
																		</g>
																		<g opacity="1" transform="matrix(1,0,0,1,-1792,-1153)">
																			<path stroke-linecap="round" stroke-linejoin="round"
																				fill-opacity="0" stroke="rgb(191,206,226)"
																				stroke-opacity="1" stroke-width="5"
																				d=" M1741.751953125,1155.5560302734375 C1741.751953125,1155.5560302734375 1784.0400390625,1142.4549560546875 1787.31494140625,1141.43994140625">
																			</path>
																			<g opacity="1" transform="matrix(1,0,0,1,15,45)"></g>
																			<g opacity="1" transform="matrix(1,0,0,1,10,30)"></g>
																			<g opacity="1" transform="matrix(1,0,0,1,5,15)"></g>
																			<g opacity="1" transform="matrix(1,0,0,1,0,0)"></g>
																		</g>
																	</g>
																	<g opacity="1"
																		transform="matrix(5.671279430389404,1.766406774520874,-1.766406774520874,5.671279430389404,1801.1390380859375,934.1640014648438)">
																		<path fill="rgb(0,122,255)" fill-opacity="1"
																			d=" M78.95800018310547,-33.9900016784668 C78.95800018310547,-33.9900016784668 103.17500305175781,43.82400131225586 103.17500305175781,43.82400131225586 C103.53500366210938,44.98099899291992 103.67500305175781,46.15999984741211 103.625,47.301998138427734 C103.44499969482422,51.4640007019043 100.68499755859375,55.25699996948242 96.48500061035156,56.564998626708984 C96.48500061035156,56.564998626708984 -39.904998779296875,99.01399993896484 -39.904998779296875,99.01399993896484 C-44.125,100.3290023803711 -48.564998626708984,98.73899841308594 -51.064998626708984,95.38700103759766 C-51.744998931884766,94.48400115966797 -52.275001525878906,93.4540023803711 -52.6349983215332,92.31800079345703 C-52.6349983215332,92.31800079345703 -76.84100341796875,14.536999702453613 -76.84100341796875,14.536999702453613 C-78.51100158691406,9.164999961853027 -74.7030029296875,6.060999870300293 -68.3290023803711,7.683000087738037 C-68.3290023803711,7.683000087738037 12.317000389099121,29.180999755859375 12.317000389099121,29.180999755859375 C12.317000389099121,29.180999755859375 68.06099700927734,-34.76599884033203 68.06099700927734,-34.76599884033203 C72.19999694824219,-39.37900161743164 77.26799774169922,-39.34400177001953 78.95800018310547,-33.9900016784668z M78.95800018310547,-33.9900016784668 C78.95800018310547,-33.9900016784668 103.17500305175781,43.82400131225586 103.17500305175781,43.82400131225586 C103.53500366210938,44.98099899291992 103.67500305175781,46.15999984741211 103.625,47.301998138427734 C103.44499969482422,51.4640007019043 100.68499755859375,55.25699996948242 96.48500061035156,56.564998626708984 C96.48500061035156,56.564998626708984 -39.904998779296875,99.01399993896484 -39.904998779296875,99.01399993896484 C-44.125,100.3290023803711 -48.564998626708984,98.73899841308594 -51.064998626708984,95.38700103759766 C-51.744998931884766,94.48400115966797 -52.275001525878906,93.4540023803711 -52.6349983215332,92.31800079345703 C-52.6349983215332,92.31800079345703 -76.84100341796875,14.536999702453613 -76.84100341796875,14.536999702453613 C-78.51100158691406,9.164999961853027 -74.7030029296875,6.060999870300293 -68.3290023803711,7.683000087738037 C-68.3290023803711,7.683000087738037 12.317000389099121,29.180999755859375 12.317000389099121,29.180999755859375 C12.317000389099121,29.180999755859375 68.06099700927734,-34.76599884033203 68.06099700927734,-34.76599884033203 C72.19999694824219,-39.37900161743164 77.26799774169922,-39.34400177001953 78.95800018310547,-33.9900016784668z M103.572998046875,47.13399887084961 C103.42400360107422,51.39400100708008 100.68499755859375,55.25699996948242 96.48500061035156,56.564998626708984 C96.48500061035156,56.564998626708984 -39.904998779296875,99.01300048828125 -39.904998779296875,99.01300048828125 C-44.125,100.3280029296875 -48.5880012512207,98.66699981689453 -51.11800003051758,95.21700286865234 C-51.11800003051758,95.21700286865234 5.468999862670898,25.01099967956543 5.468999862670898,25.01099967956543 C5.468999862670898,25.01099967956543 8.102999687194824,21.832000732421875 10.819999694824219,21.020000457763672 C13.536999702453613,20.20800018310547 17.107999801635742,21.540000915527344 17.107999801635742,21.540000915527344 C17.107999801635742,21.540000915527344 103.572998046875,47.13399887084961 103.572998046875,47.13399887084961z M103.572998046875,47.13399887084961 C103.42400360107422,51.39400100708008 100.68499755859375,55.25699996948242 96.48500061035156,56.564998626708984 C96.48500061035156,56.564998626708984 -39.904998779296875,99.01300048828125 -39.904998779296875,99.01300048828125 C-44.125,100.3280029296875 -48.5880012512207,98.66699981689453 -51.11800003051758,95.21700286865234 C-51.11800003051758,95.21700286865234 5.468999862670898,25.01099967956543 5.468999862670898,25.01099967956543 C5.468999862670898,25.01099967956543 8.102999687194824,21.832000732421875 10.819999694824219,21.020000457763672 C13.536999702453613,20.20800018310547 17.107999801635742,21.540000915527344 17.107999801635742,21.540000915527344 C17.107999801635742,21.540000915527344 103.572998046875,47.13399887084961 103.572998046875,47.13399887084961z M103.625,47.301998138427734 C103.44499969482422,51.4640007019043 100.68499755859375,55.25699996948242 96.48500061035156,56.564998626708984 C96.48500061035156,56.564998626708984 -39.904998779296875,99.01399993896484 -39.904998779296875,99.01399993896484 C-44.125,100.3290023803711 -48.564998626708984,98.73899841308594 -51.064998626708984,95.38700103759766 C-51.064998626708984,95.38700103759766 5.9019999504089355,26.402000427246094 5.9019999504089355,26.402000427246094 C5.9019999504089355,26.402000427246094 8.553000450134277,23.277999877929688 11.270000457763672,22.46500015258789 C13.987000465393066,21.652000427246094 17.541000366210938,22.927000045776367 17.541000366210938,22.927000045776367 C17.541000366210938,22.927000045776367 103.625,47.301998138427734 103.625,47.301998138427734z M103.625,47.301998138427734 C103.44499969482422,51.4640007019043 100.68499755859375,55.25699996948242 96.48500061035156,56.564998626708984 C96.48500061035156,56.564998626708984 -39.904998779296875,99.01399993896484 -39.904998779296875,99.01399993896484 C-44.125,100.3290023803711 -48.564998626708984,98.73899841308594 -51.064998626708984,95.38700103759766 C-51.064998626708984,95.38700103759766 5.9019999504089355,26.402000427246094 5.9019999504089355,26.402000427246094 C5.9019999504089355,26.402000427246094 8.553000450134277,23.277999877929688 11.270000457763672,22.46500015258789 C13.987000465393066,21.652000427246094 17.541000366210938,22.927000045776367 17.541000366210938,22.927000045776367 C17.541000366210938,22.927000045776367 103.625,47.301998138427734 103.625,47.301998138427734z M-73.9260025024414,5.758999824523926 C-73.92787170410156,5.761000156402588 -73.93099975585938,5.769000053405762 -73.93399810791016,5.77400016784668 C-73.93399810791016,5.77400016784668 -73.93399810791016,5.7769999504089355 -73.93299865722656,5.7779998779296875 C-73.93199920654297,5.78000020980835 -73.93287658691406,5.781000137329102 -73.93199920654297,5.781000137329102 C-73.93199920654297,5.781000137329102 -73.90799713134766,5.7729997634887695 -73.90799713134766,5.7729997634887695 C-73.9071273803711,5.7729997634887695 -73.90699768066406,5.7729997634887695 -73.90799713134766,5.769999980926514 C-73.90799713134766,5.769000053405762 -73.90899658203125,5.767000198364258 -73.90899658203125,5.767000198364258 C-73.91400146484375,5.763999938964844 -73.9229965209961,5.758999824523926 -73.92500305175781,5.758999824523926 C-73.92500305175781,5.758999824523926 -73.9260025024414,5.758999824523926 -73.9260025024414,5.758999824523926z M-73.9260025024414,5.758999824523926 C-73.92787170410156,5.761000156402588 -73.93099975585938,5.769000053405762 -73.93399810791016,5.77400016784668 C-73.93399810791016,5.77400016784668 -73.93399810791016,5.7769999504089355 -73.93299865722656,5.7779998779296875 C-73.93199920654297,5.78000020980835 -73.93287658691406,5.781000137329102 -73.93199920654297,5.781000137329102 C-73.93199920654297,5.781000137329102 -73.90799713134766,5.7729997634887695 -73.90799713134766,5.7729997634887695 C-73.9071273803711,5.7729997634887695 -73.90699768066406,5.7729997634887695 -73.90799713134766,5.769999980926514 C-73.90799713134766,5.769000053405762 -73.90899658203125,5.767000198364258 -73.90899658203125,5.767000198364258 C-73.91400146484375,5.763999938964844 -73.9229965209961,5.758999824523926 -73.92500305175781,5.758999824523926 C-73.92500305175781,5.758999824523926 -73.9260025024414,5.758999824523926 -73.9260025024414,5.758999824523926z">
																		</path>
																		<path fill="rgb(89,151,238)" fill-opacity="1"
																			d=" M103.625,47.301998138427734 C103.44499969482422,51.4640007019043 100.68499755859375,55.25699996948242 96.48500061035156,56.564998626708984 C96.48500061035156,56.564998626708984 -39.904998779296875,99.01399993896484 -39.904998779296875,99.01399993896484 C-44.125,100.3290023803711 -48.564998626708984,98.73899841308594 -51.064998626708984,95.38700103759766 C-51.064998626708984,95.38700103759766 5.9019999504089355,26.402000427246094 5.9019999504089355,26.402000427246094 C5.9019999504089355,26.402000427246094 8.553000450134277,23.277999877929688 11.270000457763672,22.46500015258789 C13.987000465393066,21.652000427246094 17.541000366210938,22.927000045776367 17.541000366210938,22.927000045776367 C17.541000366210938,22.927000045776367 103.625,47.301998138427734 103.625,47.301998138427734z M103.625,47.301998138427734 C103.44499969482422,51.4640007019043 100.68499755859375,55.25699996948242 96.48500061035156,56.564998626708984 C96.48500061035156,56.564998626708984 -39.904998779296875,99.01399993896484 -39.904998779296875,99.01399993896484 C-44.125,100.3290023803711 -48.564998626708984,98.73899841308594 -51.064998626708984,95.38700103759766 C-51.064998626708984,95.38700103759766 5.9019999504089355,26.402000427246094 5.9019999504089355,26.402000427246094 C5.9019999504089355,26.402000427246094 8.553000450134277,23.277999877929688 11.270000457763672,22.46500015258789 C13.987000465393066,21.652000427246094 17.541000366210938,22.927000045776367 17.541000366210938,22.927000045776367 C17.541000366210938,22.927000045776367 103.625,47.301998138427734 103.625,47.301998138427734z M-73.9260025024414,5.758999824523926 C-73.92787170410156,5.761000156402588 -73.93099975585938,5.769000053405762 -73.93399810791016,5.77400016784668 C-73.93399810791016,5.77400016784668 -73.93399810791016,5.7769999504089355 -73.93299865722656,5.7779998779296875 C-73.93199920654297,5.78000020980835 -73.93287658691406,5.781000137329102 -73.93199920654297,5.781000137329102 C-73.93199920654297,5.781000137329102 -73.90799713134766,5.7729997634887695 -73.90799713134766,5.7729997634887695 C-73.9071273803711,5.7729997634887695 -73.90699768066406,5.7729997634887695 -73.90799713134766,5.769999980926514 C-73.90799713134766,5.769000053405762 -73.90899658203125,5.767000198364258 -73.90899658203125,5.767000198364258 C-73.91400146484375,5.763999938964844 -73.9229965209961,5.758999824523926 -73.92500305175781,5.758999824523926 C-73.92500305175781,5.758999824523926 -73.9260025024414,5.758999824523926 -73.9260025024414,5.758999824523926z M-73.9260025024414,5.758999824523926 C-73.92787170410156,5.761000156402588 -73.93099975585938,5.769000053405762 -73.93399810791016,5.77400016784668 C-73.93399810791016,5.77400016784668 -73.93399810791016,5.7769999504089355 -73.93299865722656,5.7779998779296875 C-73.93199920654297,5.78000020980835 -73.93287658691406,5.781000137329102 -73.93199920654297,5.781000137329102 C-73.93199920654297,5.781000137329102 -73.90799713134766,5.7729997634887695 -73.90799713134766,5.7729997634887695 C-73.9071273803711,5.7729997634887695 -73.90699768066406,5.7729997634887695 -73.90799713134766,5.769999980926514 C-73.90799713134766,5.769000053405762 -73.90899658203125,5.767000198364258 -73.90899658203125,5.767000198364258 C-73.91400146484375,5.763999938964844 -73.9229965209961,5.758999824523926 -73.92500305175781,5.758999824523926 C-73.92500305175781,5.758999824523926 -73.9260025024414,5.758999824523926 -73.9260025024414,5.758999824523926z">
																		</path>
																		<path fill="rgb(102,162,246)" fill-opacity="0"
																			d=" M-73.9260025024414,5.758999824523926 C-73.92787170410156,5.761000156402588 -73.93099975585938,5.769000053405762 -73.93399810791016,5.77400016784668 C-73.93399810791016,5.77400016784668 -73.93399810791016,5.7769999504089355 -73.93299865722656,5.7779998779296875 C-73.93199920654297,5.78000020980835 -73.93287658691406,5.781000137329102 -73.93199920654297,5.781000137329102 C-73.93199920654297,5.781000137329102 -73.90799713134766,5.7729997634887695 -73.90799713134766,5.7729997634887695 C-73.9071273803711,5.7729997634887695 -73.90699768066406,5.7729997634887695 -73.90799713134766,5.769999980926514 C-73.90799713134766,5.769000053405762 -73.90899658203125,5.767000198364258 -73.90899658203125,5.767000198364258 C-73.91400146484375,5.763999938964844 -73.9229965209961,5.758999824523926 -73.92500305175781,5.758999824523926 C-73.92500305175781,5.758999824523926 -73.9260025024414,5.758999824523926 -73.9260025024414,5.758999824523926z M-73.9260025024414,5.758999824523926 C-73.92787170410156,5.761000156402588 -73.93099975585938,5.769000053405762 -73.93399810791016,5.77400016784668 C-73.93399810791016,5.77400016784668 -73.93399810791016,5.7769999504089355 -73.93299865722656,5.7779998779296875 C-73.93199920654297,5.78000020980835 -73.93287658691406,5.781000137329102 -73.93199920654297,5.781000137329102 C-73.93199920654297,5.781000137329102 -73.90799713134766,5.7729997634887695 -73.90799713134766,5.7729997634887695 C-73.9071273803711,5.7729997634887695 -73.90699768066406,5.7729997634887695 -73.90799713134766,5.769999980926514 C-73.90799713134766,5.769000053405762 -73.90899658203125,5.767000198364258 -73.90899658203125,5.767000198364258 C-73.91400146484375,5.763999938964844 -73.9229965209961,5.758999824523926 -73.92500305175781,5.758999824523926 C-73.92500305175781,5.758999824523926 -73.9260025024414,5.758999824523926 -73.9260025024414,5.758999824523926z">
																		</path>
																	</g>
																</g>
																<g transform="matrix(0.8199999928474426,0,0,0.8199999928474426,478.48223876953125,853.4967651367188)"
																	opacity="1" style="display: block;">
																	<g opacity="1" transform="matrix(1,0,0,1,200.25,-287)">
																		<path fill="rgb(0,0,0)" fill-opacity="0.17"
																			d=" M127.75,-39.5 C127.75,-39.5 127.75,51.5 127.75,51.5 C127.75,57.01900100708008 123.26899719238281,61.5 117.75,61.5 C117.75,61.5 -129.75,61.5 -129.75,61.5 C-135.2689971923828,61.5 -139.75,57.01900100708008 -139.75,51.5 C-139.75,51.5 -139.75,-39.5 -139.75,-39.5 C-139.75,-45.01900100708008 -135.2689971923828,-49.5 -129.75,-49.5 C-129.75,-49.5 117.75,-49.5 117.75,-49.5 C123.26899719238281,-49.5 127.75,-45.01900100708008 127.75,-39.5z M127.75,-39.5 C127.75,-39.5 127.75,51.5 127.75,51.5 C127.75,57.01900100708008 123.26899719238281,61.5 117.75,61.5 C117.75,61.5 -129.75,61.5 -129.75,61.5 C-135.2689971923828,61.5 -139.75,57.01900100708008 -139.75,51.5 C-139.75,51.5 -139.75,-39.5 -139.75,-39.5 C-139.75,-45.01900100708008 -135.2689971923828,-49.5 -129.75,-49.5 C-129.75,-49.5 117.75,-49.5 117.75,-49.5 C123.26899719238281,-49.5 127.75,-45.01900100708008 127.75,-39.5z M133.75,-45.5 C133.75,-45.5 133.75,45.5 133.75,45.5 C133.75,51.01900100708008 129.2689971923828,55.5 123.75,55.5 C123.75,55.5 -123.75,55.5 -123.75,55.5 C-129.2689971923828,55.5 -133.75,51.01900100708008 -133.75,45.5 C-133.75,45.5 -133.75,-45.5 -133.75,-45.5 C-133.75,-51.01900100708008 -129.2689971923828,-55.5 -123.75,-55.5 C-123.75,-55.5 123.75,-55.5 123.75,-55.5 C129.2689971923828,-55.5 133.75,-51.01900100708008 133.75,-45.5z M133.75,-45.5 C133.75,-45.5 133.75,45.5 133.75,45.5 C133.75,51.01900100708008 129.2689971923828,55.5 123.75,55.5 C123.75,55.5 -123.75,55.5 -123.75,55.5 C-129.2689971923828,55.5 -133.75,51.01900100708008 -133.75,45.5 C-133.75,45.5 -133.75,-45.5 -133.75,-45.5 C-133.75,-51.01900100708008 -129.2689971923828,-55.5 -123.75,-55.5 C-123.75,-55.5 123.75,-55.5 123.75,-55.5 C129.2689971923828,-55.5 133.75,-51.01900100708008 133.75,-45.5z M-74,-46.75 C-48.198673248291016,-46.75 -27.25,-25.80132484436035 -27.25,0 C-27.25,25.80132484436035 -48.198673248291016,46.75 -74,46.75 C-99.80132293701172,46.75 -120.75,25.80132484436035 -120.75,0 C-120.75,-25.80132484436035 -99.80132293701172,-46.75 -74,-46.75z M-74,-46.75 C-48.198673248291016,-46.75 -27.25,-25.80132484436035 -27.25,0 C-27.25,25.80132484436035 -48.198673248291016,46.75 -74,46.75 C-99.80132293701172,46.75 -120.75,25.80132484436035 -120.75,0 C-120.75,-25.80132484436035 -99.80132293701172,-46.75 -74,-46.75z M-74,-32 C-63.36899948120117,-32 -54.75,-23.381000518798828 -54.75,-12.75 C-54.75,-3.9839999675750732 -60.60900115966797,7.322999954223633 -68.625,11.020999908447266 C-69.45600128173828,11.404999732971191 -45,13.625 -43.935001373291016,27.259000778198242 C-48.75,33.875 -60.625,40.25 -74,40.25 C-88.3759994506836,40.25 -100.375,32.125 -105.00199890136719,26.947999954223633 C-104.375,13.25 -79.21700286865234,11.142999649047852 -80.26799774169922,10.572999954223633 C-87.8219985961914,6.478000164031982 -93.25,-4.313000202178955 -93.25,-12.75 C-93.25,-23.381000518798828 -84.63099670410156,-32 -74,-32z M-74,-32 C-63.36899948120117,-32 -54.75,-23.381000518798828 -54.75,-12.75 C-54.75,-3.9839999675750732 -60.60900115966797,7.322999954223633 -68.625,11.020999908447266 C-69.45600128173828,11.404999732971191 -45,13.625 -43.935001373291016,27.259000778198242 C-48.75,33.875 -60.625,40.25 -74,40.25 C-88.3759994506836,40.25 -100.375,32.125 -105.00199890136719,26.947999954223633 C-104.375,13.25 -79.21700286865234,11.142999649047852 -80.26799774169922,10.572999954223633 C-87.8219985961914,6.478000164031982 -93.25,-4.313000202178955 -93.25,-12.75 C-93.25,-23.381000518798828 -84.63099670410156,-32 -74,-32z">
																		</path>
																		<path fill="rgb(255,255,255)" fill-opacity="1"
																			d=" M133.75,-45.5 C133.75,-45.5 133.75,45.5 133.75,45.5 C133.75,51.01900100708008 129.2689971923828,55.5 123.75,55.5 C123.75,55.5 -123.75,55.5 -123.75,55.5 C-129.2689971923828,55.5 -133.75,51.01900100708008 -133.75,45.5 C-133.75,45.5 -133.75,-45.5 -133.75,-45.5 C-133.75,-51.01900100708008 -129.2689971923828,-55.5 -123.75,-55.5 C-123.75,-55.5 123.75,-55.5 123.75,-55.5 C129.2689971923828,-55.5 133.75,-51.01900100708008 133.75,-45.5z M133.75,-45.5 C133.75,-45.5 133.75,45.5 133.75,45.5 C133.75,51.01900100708008 129.2689971923828,55.5 123.75,55.5 C123.75,55.5 -123.75,55.5 -123.75,55.5 C-129.2689971923828,55.5 -133.75,51.01900100708008 -133.75,45.5 C-133.75,45.5 -133.75,-45.5 -133.75,-45.5 C-133.75,-51.01900100708008 -129.2689971923828,-55.5 -123.75,-55.5 C-123.75,-55.5 123.75,-55.5 123.75,-55.5 C129.2689971923828,-55.5 133.75,-51.01900100708008 133.75,-45.5z M-74,-46.75 C-48.198673248291016,-46.75 -27.25,-25.80132484436035 -27.25,0 C-27.25,25.80132484436035 -48.198673248291016,46.75 -74,46.75 C-99.80132293701172,46.75 -120.75,25.80132484436035 -120.75,0 C-120.75,-25.80132484436035 -99.80132293701172,-46.75 -74,-46.75z M-74,-46.75 C-48.198673248291016,-46.75 -27.25,-25.80132484436035 -27.25,0 C-27.25,25.80132484436035 -48.198673248291016,46.75 -74,46.75 C-99.80132293701172,46.75 -120.75,25.80132484436035 -120.75,0 C-120.75,-25.80132484436035 -99.80132293701172,-46.75 -74,-46.75z M-74,-32 C-63.36899948120117,-32 -54.75,-23.381000518798828 -54.75,-12.75 C-54.75,-3.9839999675750732 -60.60900115966797,7.322999954223633 -68.625,11.020999908447266 C-69.45600128173828,11.404999732971191 -45,13.625 -43.935001373291016,27.259000778198242 C-48.75,33.875 -60.625,40.25 -74,40.25 C-88.3759994506836,40.25 -100.375,32.125 -105.00199890136719,26.947999954223633 C-104.375,13.25 -79.21700286865234,11.142999649047852 -80.26799774169922,10.572999954223633 C-87.8219985961914,6.478000164031982 -93.25,-4.313000202178955 -93.25,-12.75 C-93.25,-23.381000518798828 -84.63099670410156,-32 -74,-32z M-74,-32 C-63.36899948120117,-32 -54.75,-23.381000518798828 -54.75,-12.75 C-54.75,-3.9839999675750732 -60.60900115966797,7.322999954223633 -68.625,11.020999908447266 C-69.45600128173828,11.404999732971191 -45,13.625 -43.935001373291016,27.259000778198242 C-48.75,33.875 -60.625,40.25 -74,40.25 C-88.3759994506836,40.25 -100.375,32.125 -105.00199890136719,26.947999954223633 C-104.375,13.25 -79.21700286865234,11.142999649047852 -80.26799774169922,10.572999954223633 C-87.8219985961914,6.478000164031982 -93.25,-4.313000202178955 -93.25,-12.75 C-93.25,-23.381000518798828 -84.63099670410156,-32 -74,-32z">
																		</path>
																		<path fill="rgb(223,229,243)" fill-opacity="1"
																			d=" M-74,-46.75 C-48.198673248291016,-46.75 -27.25,-25.80132484436035 -27.25,0 C-27.25,25.80132484436035 -48.198673248291016,46.75 -74,46.75 C-99.80132293701172,46.75 -120.75,25.80132484436035 -120.75,0 C-120.75,-25.80132484436035 -99.80132293701172,-46.75 -74,-46.75z M-74,-46.75 C-48.198673248291016,-46.75 -27.25,-25.80132484436035 -27.25,0 C-27.25,25.80132484436035 -48.198673248291016,46.75 -74,46.75 C-99.80132293701172,46.75 -120.75,25.80132484436035 -120.75,0 C-120.75,-25.80132484436035 -99.80132293701172,-46.75 -74,-46.75z M-74,-32 C-63.36899948120117,-32 -54.75,-23.381000518798828 -54.75,-12.75 C-54.75,-3.9839999675750732 -60.60900115966797,7.322999954223633 -68.625,11.020999908447266 C-69.45600128173828,11.404999732971191 -45,13.625 -43.935001373291016,27.259000778198242 C-48.75,33.875 -60.625,40.25 -74,40.25 C-88.3759994506836,40.25 -100.375,32.125 -105.00199890136719,26.947999954223633 C-104.375,13.25 -79.21700286865234,11.142999649047852 -80.26799774169922,10.572999954223633 C-87.8219985961914,6.478000164031982 -93.25,-4.313000202178955 -93.25,-12.75 C-93.25,-23.381000518798828 -84.63099670410156,-32 -74,-32z M-74,-32 C-63.36899948120117,-32 -54.75,-23.381000518798828 -54.75,-12.75 C-54.75,-3.9839999675750732 -60.60900115966797,7.322999954223633 -68.625,11.020999908447266 C-69.45600128173828,11.404999732971191 -45,13.625 -43.935001373291016,27.259000778198242 C-48.75,33.875 -60.625,40.25 -74,40.25 C-88.3759994506836,40.25 -100.375,32.125 -105.00199890136719,26.947999954223633 C-104.375,13.25 -79.21700286865234,11.142999649047852 -80.26799774169922,10.572999954223633 C-87.8219985961914,6.478000164031982 -93.25,-4.313000202178955 -93.25,-12.75 C-93.25,-23.381000518798828 -84.63099670410156,-32 -74,-32z">
																		</path>
																		<path fill="rgb(255,255,255)" fill-opacity="1"
																			d=" M-74,-32 C-63.36899948120117,-32 -54.75,-23.381000518798828 -54.75,-12.75 C-54.75,-3.9839999675750732 -60.60900115966797,7.322999954223633 -68.625,11.020999908447266 C-69.45600128173828,11.404999732971191 -45,13.625 -43.935001373291016,27.259000778198242 C-48.75,33.875 -60.625,40.25 -74,40.25 C-88.3759994506836,40.25 -100.375,32.125 -105.00199890136719,26.947999954223633 C-104.375,13.25 -79.21700286865234,11.142999649047852 -80.26799774169922,10.572999954223633 C-87.8219985961914,6.478000164031982 -93.25,-4.313000202178955 -93.25,-12.75 C-93.25,-23.381000518798828 -84.63099670410156,-32 -74,-32z M-74,-32 C-63.36899948120117,-32 -54.75,-23.381000518798828 -54.75,-12.75 C-54.75,-3.9839999675750732 -60.60900115966797,7.322999954223633 -68.625,11.020999908447266 C-69.45600128173828,11.404999732971191 -45,13.625 -43.935001373291016,27.259000778198242 C-48.75,33.875 -60.625,40.25 -74,40.25 C-88.3759994506836,40.25 -100.375,32.125 -105.00199890136719,26.947999954223633 C-104.375,13.25 -79.21700286865234,11.142999649047852 -80.26799774169922,10.572999954223633 C-87.8219985961914,6.478000164031982 -93.25,-4.313000202178955 -93.25,-12.75 C-93.25,-23.381000518798828 -84.63099670410156,-32 -74,-32z">
																		</path>
																	</g>
																	<g opacity="1" transform="matrix(1,0,0,1,0,0)">
																		<path stroke-linecap="round" stroke-linejoin="round"
																			fill-opacity="0" stroke="rgb(222,228,243)" stroke-opacity="1"
																			stroke-width="10"
																			d=" M192.5,-298 C192.5,-298 313,-298 313,-298 M192.5,-298 C192.5,-298 313,-298 313,-298 M192.5,-256 C192.5,-256 313,-256 313,-256 M192.5,-277 C192.5,-277 313,-277 313,-277 M192.5,-298 C192.5,-298 313,-298 313,-298">
																		</path>
																		<g opacity="1" transform="matrix(1,0,0,1,0,42)"></g>
																		<g opacity="1" transform="matrix(1,0,0,1,0,21)"></g>
																		<g opacity="1" transform="matrix(1,0,0,1,0,0)"></g>
																	</g>
																	<g opacity="1" transform="matrix(1,0,0,1,0,0)">
																		<path stroke-linecap="round" stroke-linejoin="round"
																			fill-opacity="0" stroke="rgb(0,122,255)" stroke-opacity="1"
																			stroke-width="10"
																			d=" M192.5,-319.5 C192.5,-319.5 250.5,-319.5 250.5,-319.5 M192.5,-319.5 C192.5,-319.5 250.5,-319.5 250.5,-319.5">
																		</path>
																	</g>
																</g>
																<g mask="url(#__lottie_element_30_2)" style="display: block;">
																	<g transform="matrix(0.5613787174224854,-0.3276490569114685,0.3276490569114685,0.5613787174224854,-304.583984375,436.71759033203125)"
																		opacity="1">
																		<g opacity="1"
																			transform="matrix(1,0,0,1,790.9019775390625,773.677978515625)">
																			<path fill="rgb(0,0,0)" fill-opacity="0.2"
																				d=" M7.052504539489746,5.769775867462158 C7.052504539489746,5.769775867462158 119.51065063476562,17.357742309570312 119.51065063476562,17.357742309570312 C119.51065063476562,17.357742309570312 12.07128620147705,-25.30948257446289 12.07128620147705,-25.30948257446289 C12.07128620147705,-25.30948257446289 5.23260498046875,-2.920881509780884 5.23260498046875,-2.920881509780884 C5.23260498046875,-2.920881509780884 6.8237481117248535,-1.9594812393188477 6.8237481117248535,-1.9594812393188477 C6.8237481117248535,-1.9594812393188477 7.052504539489746,5.769775867462158 7.052504539489746,5.769775867462158z M119.51065063476562,17.357742309570312 C119.51065063476562,17.357742309570312 2.1396780014038086,-17.904640197753906 2.1396780014038086,-17.904640197753906 C2.1396780014038086,-17.904640197753906 -63.87567138671875,8.888751029968262 -63.87567138671875,8.888751029968262 C-63.87567138671875,8.888751029968262 119.51065063476562,17.357742309570312 119.51065063476562,17.357742309570312z M13.148059844970703,-23.729455947875977 C13.148059844970703,-23.729455947875977 119.51065063476562,17.357742309570312 119.51065063476562,17.357742309570312 C119.51065063476562,17.357742309570312 6.514551162719727,-58.76594161987305 6.514551162719727,-58.76594161987305 C6.514551162719727,-58.76594161987305 13.148059844970703,-23.729455947875977 13.148059844970703,-23.729455947875977z">
																			</path>
																		</g>
																		<g opacity="1"
																			transform="matrix(1,0,0,1,795.9019775390625,768.677978515625)">
																			<path fill="rgb(166,189,219)" fill-opacity="1"
																				d=" M7.052504539489746,5.769775867462158 C7.052504539489746,5.769775867462158 119.51065063476562,17.357742309570312 119.51065063476562,17.357742309570312 C119.51065063476562,17.357742309570312 12.07128620147705,-25.30948257446289 12.07128620147705,-25.30948257446289 C12.07128620147705,-25.30948257446289 5.23260498046875,-2.920881509780884 5.23260498046875,-2.920881509780884 C5.23260498046875,-2.920881509780884 6.8237481117248535,-1.9594812393188477 6.8237481117248535,-1.9594812393188477 C6.8237481117248535,-1.9594812393188477 7.052504539489746,5.769775867462158 7.052504539489746,5.769775867462158z M119.51065063476562,17.357742309570312 C119.51065063476562,17.357742309570312 2.1396780014038086,-17.904640197753906 2.1396780014038086,-17.904640197753906 C2.1396780014038086,-17.904640197753906 -63.87567138671875,8.888751029968262 -63.87567138671875,8.888751029968262 C-63.87567138671875,8.888751029968262 119.51065063476562,17.357742309570312 119.51065063476562,17.357742309570312z M13.148059844970703,-23.729455947875977 C13.148059844970703,-23.729455947875977 119.51065063476562,17.357742309570312 119.51065063476562,17.357742309570312 C119.51065063476562,17.357742309570312 6.514551162719727,-58.76594161987305 6.514551162719727,-58.76594161987305 C6.514551162719727,-58.76594161987305 13.148059844970703,-23.729455947875977 13.148059844970703,-23.729455947875977z">
																			</path>
																			<path fill="rgb(211,223,237)" fill-opacity="1"
																				d=" M119.51065063476562,17.357742309570312 C119.51065063476562,17.357742309570312 2.1396780014038086,-17.904640197753906 2.1396780014038086,-17.904640197753906 C2.1396780014038086,-17.904640197753906 -63.87567138671875,8.888751029968262 -63.87567138671875,8.888751029968262 C-63.87567138671875,8.888751029968262 119.51065063476562,17.357742309570312 119.51065063476562,17.357742309570312z M13.148059844970703,-23.729455947875977 C13.148059844970703,-23.729455947875977 119.51065063476562,17.357742309570312 119.51065063476562,17.357742309570312 C119.51065063476562,17.357742309570312 6.514551162719727,-58.76594161987305 6.514551162719727,-58.76594161987305 C6.514551162719727,-58.76594161987305 13.148059844970703,-23.729455947875977 13.148059844970703,-23.729455947875977z">
																			</path>
																		</g>
																	</g>
																</g>
															</g>
														</svg>
